<?xml version="1.0" encoding="utf-8"?>
<!-- Generator: Adobe Illustrator 25.1.0, SVG Export Plug-In . SVG Version: 6.00 Build 0)  -->
<svg version="1.1" id="Layer_1" xmlns="http://www.w3.org/2000/svg" xmlns:xlink="http://www.w3.org/1999/xlink" x="0px" y="0px"
	 viewBox="0 0 512 512" style="enable-background:new 0 0 512 512;" xml:space="preserve">
<style type="text/css">
	.st0{fill:#333333;}
</style>
<g>
	<path class="st0" d="M76.09,102.29c2.09,0,4.05,0,6.01,0c115.73,0,231.47,0,347.2,0c7.17,0,7.04,0.04,6.37,7.32
		c-3.23,35.07-6.37,70.16-9.54,105.24c-3.2,35.41-6.43,70.82-9.57,106.24c-2.84,31.94-5.58,63.89-8.36,95.83
		c-1.38,15.89-2.82,31.77-4.09,47.67c-0.38,4.69-3.19,6.39-7.25,7.51c-37.3,10.23-74.57,20.56-111.84,30.86
		c-2.4,0.66-4.9,1.08-7.18,2.03c-15.01,6.25-29.59,4.68-44.98,0.1c-39.13-11.64-78.61-22.11-118-32.86
		c-4.98-1.36-6.89-3.82-7.33-8.97c-4.37-50.65-9.02-101.28-13.51-151.92c-4.49-50.64-8.85-101.3-13.32-151.94
		c-1.45-16.38-3.09-32.75-4.57-49.13C75.9,107.82,76.09,105.33,76.09,102.29z M142.16,176.65c0.38,5.13,0.63,9.41,1.02,13.68
		c3.48,38.39,7.03,76.78,10.46,115.18c0.68,7.66,1.57,8.7,9.42,8.7c46.57,0,93.13-0.01,139.7,0.01c7.55,0,8.18,0.63,7.56,7.94
		c-1.26,14.9-2.68,29.79-3.9,44.69c-0.34,4.18-2.56,6.1-6.4,7.07c-13.67,3.49-27.28,7.19-40.96,10.63c-2.15,0.54-4.66,0.65-6.79,0.1
		c-13.67-3.5-27.23-7.41-40.92-10.79c-4.57-1.13-6.26-3.56-6.54-7.92c-0.52-7.96-1.46-15.89-1.89-23.84
		c-0.25-4.52-2.36-6.05-6.65-5.98c-8.81,0.15-17.63,0.04-26.44,0.04c-4.25,0-8.51,0-12.78,0c-0.18,1.4-0.38,2.05-0.32,2.69
		c1.82,21.52,3.54,43.06,5.73,64.54c0.21,2.03,3.12,4.84,5.3,5.47c27.76,7.96,55.6,15.68,83.48,23.2c3.03,0.82,6.67,0.72,9.71-0.1
		c27.09-7.29,54.08-14.95,81.18-22.21c5.06-1.35,6.84-3.88,7.28-8.97c2.69-31.46,5.71-62.88,8.54-94.33
		c1.13-12.53,2.04-25.08,3.1-38.27c-55.11,0-109.71,0-164.68,0c-1.4-15.4-2.74-30.23-4.13-45.63c2.53,0,4.48,0,6.43,0
		c52.88,0.06,105.77,0.12,158.65,0.16c7.36,0.01,8.15-0.79,8.75-8.17c0.85-10.43,1.68-20.87,2.67-31.29
		c0.61-6.47,0.52-6.78-6.14-6.77c-21.45,0.02-42.9,0.13-64.35,0.15c-49.39,0.02-98.79,0.01-148.18,0.01
		C147.63,176.65,145.19,176.65,142.16,176.65z"/>
	<path class="st0" d="M259.43,1.18c7.44,0,15.06-0.13,22.66,0.14c1.2,0.04,2.68,1.69,3.45,2.95c4.16,6.78,8.14,13.67,12.53,21.13
		c4.36-7.3,8.52-14.07,12.44-20.97c1.41-2.48,3.08-3.42,5.94-3.33c6.44,0.21,12.9,0.07,19.7,0.07c0,22.96,0,45.48,0,68.35
		c-7.17,0-14.4,0-22.26,0c0-10.17,0-20.38,0-30.59c-0.4-0.13-0.8-0.26-1.2-0.39c-4.87,7.33-9.73,14.67-14.8,22.31
		c-5.02-7.61-9.82-14.88-14.62-22.15c-0.32,0.08-0.64,0.17-0.97,0.25c0,10.18,0,20.35,0,30.79c-7.81,0-15.05,0-22.87,0
		C259.43,47.12,259.43,24.59,259.43,1.18z"/>
	<path class="st0" d="M132.13,48.09c0,7.43,0,14.37,0,21.53c-7.84,0-15.26,0-23.15,0c0-22.62,0-45.25,0-68.17
		c7.27,0,14.64,0,22.46,0c0,7.36,0,14.45,0,21.93c7.3,0,14.16,0,21.7,0c0-7.32,0-14.53,0-21.9c8.06,0,15.44,0,22.71,0
		c0,22.83,0,45.33,0,68.11c-7.75,0-15,0-22.8,0c0-7.05,0-14.11,0-21.5C145.97,48.09,139.44,48.09,132.13,48.09z"/>
	<path class="st0" d="M206.3,24.8c-7.21,0-13.47,0-20.11,0c0-7.93,0-15.46,0-23.31c20.81,0,41.48,0,62.49,0c0,7.34,0,14.58,0,22.45
		c-6.22,0-12.42,0-19.13,0c0,15.48,0,30.34,0,45.55c-7.91,0-15.29,0-23.26,0C206.3,54.91,206.3,40.21,206.3,24.8z"/>
	<path class="st0" d="M402.98,46.79c0,8.06,0,15.31,0,22.81c-18.11,0-36,0-54.27,0c0-22.57,0-45.21,0-68.14c7.44,0,14.81,0,22.71,0
		c0,15.14,0,30.01,0,45.33C382.15,46.79,392.37,46.79,402.98,46.79z"/>
</g>
</svg>
